<?xml version="1.0" encoding="UTF-8"?>
<svg width="40px" height="40px" viewBox="0 0 40 40" version="1.1" xmlns="http://www.w3.org/2000/svg" xmlns:xlink="http://www.w3.org/1999/xlink">
    <title>profile1</title>
    <g id="Page-1" stroke="none" stroke-width="1" fill="none" fill-rule="evenodd">
        <g id="profile1" fill="#000000" fill-rule="nonzero">
            <g id="profile" transform="translate(10.000000, 9.000000)">
                <path d="M10,10 C7.23857625,10 5,7.76142375 5,5 C5,2.23857625 7.23857625,0 10,0 C12.7614237,0 15,2.23857625 15,5 C15,7.76142375 12.7614237,10 10,10 L10,10 Z M5,12 L15,12 C17.7614237,12 20,14.2385763 20,17 L20,19 C20,20.6568542 18.6568542,22 17,22 L3,22 C1.34314575,22 0,20.6568542 0,19 L0,17 C0,14.2385763 2.23857625,12 5,12 Z" id="Shape"></path>
            </g>
            <path d="M20,40 C31.045695,40 40,31.045695 40,20 C40,8.954305 31.045695,0 20,0 C8.954305,0 0,8.954305 0,20 C0,31.045695 8.954305,40 20,40 Z M20,38 C10.0588745,38 2,29.9411255 2,20 C2,10.0588745 10.0588745,2 20,2 C29.9411255,2 38,10.0588745 38,20 C38,29.9411255 29.9411255,38 20,38 Z" id="Oval"></path>
        </g>
    </g>
</svg>