<svg xmlns="http://www.w3.org/2000/svg" viewBox="0 0 361.38 81.48"><defs><style>.cls-1{fill:#fff;}.cls-2{fill:#097dbe;}.cls-3{fill:none;}</style></defs><title>classicos_logos</title><g id="Layer_2" data-name="Layer 2"><g id="Layer_1-2" data-name="Layer 1"><path class="cls-1" d="M317.27,10.25a16,16,0,1,0,16,16A16,16,0,0,0,317.27,10.25Zm7,25.29-2-2.78,2.33-7.18,3.21-1,3.86,2.8a14.33,14.33,0,0,1-3.35,8.21ZM329,17.9l-1.7,5.21-3.5,1.14L318,20V16.41l4.81-3.49A14.57,14.57,0,0,1,329,17.9Zm-17.32-5,4.81,3.49V20l-5.82,4.23-3.5-1.14-1.69-5.21A14.49,14.49,0,0,1,311.71,12.92Zm-5.48,22.62a14.33,14.33,0,0,1-3.35-8.21l3.86-2.8,3.21,1,2.34,7.18-2,2.78Zm6.38,4.36-1.13-3.48,1.91-2.64h7.75l1.91,2.64-1.13,3.48a14.11,14.11,0,0,1-9.31,0Z"/><path class="cls-1" d="M178.45,71.29a3.38,3.38,0,0,0,1,1.16,4.37,4.37,0,0,0,1.44.66,7.68,7.68,0,0,0,1.71.25,9.1,9.1,0,0,0,1.29-.1,4.37,4.37,0,0,0,1.29-.38,3,3,0,0,0,1-.79,2,2,0,0,0,.4-1.27,1.71,1.71,0,0,0-.53-1.35,3.78,3.78,0,0,0-1.39-.86,11.91,11.91,0,0,0-1.94-.64c-.73-.17-1.47-.36-2.21-.58a19.84,19.84,0,0,1-2.23-.7,7.72,7.72,0,0,1-1.95-1.07,4.87,4.87,0,0,1-1.92-4,5.43,5.43,0,0,1,.67-2.74A6.37,6.37,0,0,1,176.84,57a7.61,7.61,0,0,1,2.47-1.14,10,10,0,0,1,2.75-.45,12.24,12.24,0,0,1,3.08.36,7.68,7.68,0,0,1,2.58,1.19A5.88,5.88,0,0,1,189.54,59a6.25,6.25,0,0,1,.67,3h-4.32a3.49,3.49,0,0,0-.38-1.52,2.34,2.34,0,0,0-.88-.94,3.5,3.5,0,0,0-1.24-.49,7.78,7.78,0,0,0-1.53-.14,5.76,5.76,0,0,0-1.09.11,2.88,2.88,0,0,0-1,.4,2.39,2.39,0,0,0-.73.72,1.78,1.78,0,0,0,.81,2.8,12.71,12.71,0,0,0,1.87.6c.79.21,1.82.48,3.1.8.39.08.91.22,1.59.42a7.35,7.35,0,0,1,2,1,6,6,0,0,1,1.74,1.76,4.91,4.91,0,0,1,.73,2.82,6.18,6.18,0,0,1-.55,2.61A5.46,5.46,0,0,1,188.71,75a7.72,7.72,0,0,1-2.66,1.36,12.66,12.66,0,0,1-3.68.49,13.05,13.05,0,0,1-3.22-.47,8.19,8.19,0,0,1-2.81-1.3,6.65,6.65,0,0,1-1.93-2.25,6.86,6.86,0,0,1-.69-3.27h4.36A3.8,3.8,0,0,0,178.45,71.29Z"/><path class="cls-1" d="M205.63,76.36l-2.64-10h-.05l-2.52,10h-4.21l-4.7-14.81h4.29l2.73,10.06h.05l2.47-10.06h4l2.52,10h.06l2.72-10h4.18l-4.72,14.81Z"/><path class="cls-1" d="M216,59.23V55.88h4.06v3.35Zm4.06,2.29V76.36H216V61.52Z"/><path class="cls-1" d="M226.88,61.52v1.89h.06a4.53,4.53,0,0,1,1.89-1.74,5.51,5.51,0,0,1,2.52-.55,6.36,6.36,0,0,1,3,.66,6,6,0,0,1,2.09,1.75,7.29,7.29,0,0,1,1.28,2.53,10.8,10.8,0,0,1,.4,3,9.66,9.66,0,0,1-.4,2.87,6.88,6.88,0,0,1-1.26,2.43,5.94,5.94,0,0,1-2,1.69,6.22,6.22,0,0,1-2.85.63,5.86,5.86,0,0,1-2.53-.55,5.15,5.15,0,0,1-1.91-1.65h-.06v7H223v-20Zm5.29,11.75a3.27,3.27,0,0,0,1.09-1,4.11,4.11,0,0,0,.58-1.5,8.6,8.6,0,0,0,0-3.5,4.45,4.45,0,0,0-.62-1.53,3.19,3.19,0,0,0-1.1-1.09,3.55,3.55,0,0,0-3.32,0,3.43,3.43,0,0,0-1.08,1,4.71,4.71,0,0,0-.59,1.51A10.52,10.52,0,0,0,227,69a8.6,8.6,0,0,0,.19,1.75,4.54,4.54,0,0,0,.6,1.5,3.29,3.29,0,0,0,1.1,1,3.71,3.71,0,0,0,3.34,0Z"/><path class="cls-1" d="M244.58,72.78a4.16,4.16,0,0,0,4.76.27,2.57,2.57,0,0,0,1.09-1.3H254a6.76,6.76,0,0,1-2.64,3.81,7.77,7.77,0,0,1-4.29,1.14,8.5,8.5,0,0,1-3.15-.55,7,7,0,0,1-2.38-1.59A7.58,7.58,0,0,1,240,72.09a9.14,9.14,0,0,1-.53-3.15,8.75,8.75,0,0,1,.55-3.09A7.17,7.17,0,0,1,244,61.71a7.62,7.62,0,0,1,3.08-.6,7,7,0,0,1,3.29.73,6.45,6.45,0,0,1,2.31,2,8.1,8.1,0,0,1,1.3,2.81,10.45,10.45,0,0,1,.29,3.3H243.58A4.2,4.2,0,0,0,244.58,72.78Zm4.6-7.79a2.81,2.81,0,0,0-2.22-.8,3.52,3.52,0,0,0-1.62.33,3.25,3.25,0,0,0-1,.81,3,3,0,0,0-.54,1,4.78,4.78,0,0,0-.19,1h6.62A4.51,4.51,0,0,0,249.18,65Z"/><path class="cls-1" d="M268.52,76.1a8,8,0,0,1-3.14.6,8.49,8.49,0,0,1-2.59-.4,6,6,0,0,1-2.07-1.19,5.65,5.65,0,0,1-1.41-1.91,6.45,6.45,0,0,1-.51-2.6,5.22,5.22,0,0,1,.37-2,5.91,5.91,0,0,1,1-1.63,7.88,7.88,0,0,1,1.47-1.3,13.49,13.49,0,0,1,1.72-1,13.22,13.22,0,0,1-1.39-2,4.91,4.91,0,0,1-.57-2.31,4.16,4.16,0,0,1,.45-2A4.59,4.59,0,0,1,263,56.89a5.38,5.38,0,0,1,1.7-1,6,6,0,0,1,2-.33,7,7,0,0,1,2.19.32,5.14,5.14,0,0,1,1.78.93,4.37,4.37,0,0,1,1.2,1.53,4.7,4.7,0,0,1,.44,2.12,4.5,4.5,0,0,1-1,3,8.94,8.94,0,0,1-2.63,2.14l2.63,3.23a5.26,5.26,0,0,0,.49-1.18,9,9,0,0,0,.26-1.25h3.52a10.63,10.63,0,0,1-.63,2.66,8.51,8.51,0,0,1-1.35,2.38l4.15,4.87h-5l-1.66-2A8.7,8.7,0,0,1,268.52,76.1Zm-4.08-8.25a4.65,4.65,0,0,0-.92.75,3.4,3.4,0,0,0-.64.94,2.83,2.83,0,0,0-.25,1.15,2.5,2.5,0,0,0,.25,1,2.58,2.58,0,0,0,.64.86,3.62,3.62,0,0,0,.93.58,3,3,0,0,0,1.11.21,3.6,3.6,0,0,0,1.9-.5,6.85,6.85,0,0,0,1.53-1.3l-3.49-4.18A7.24,7.24,0,0,0,264.44,67.85Zm3.79-8.9a1.7,1.7,0,0,0-1.3-.58,1.84,1.84,0,0,0-1.29.5,1.72,1.72,0,0,0-.54,1.31,2.83,2.83,0,0,0,.51,1.66c.35.46.71.92,1.09,1.4a8,8,0,0,0,1.48-1.17,2.41,2.41,0,0,0,.61-1.71A1.83,1.83,0,0,0,268.23,59Z"/><path class="cls-2" d="M298.54,76.36l-3.46-13.92H295l-3.41,13.92h-4.55l-5.42-20.45h4.5l3.24,13.92h0l3.55-13.92h4.22L300.72,70h0l3.35-14.09h4.41L303,76.36Z"/><path class="cls-2" d="M314.78,55.88V76.36h-4.49V55.88Z"/><path class="cls-2" d="M322.92,55.88l8.53,13.72h.06V55.88h4.21V76.36h-4.5l-8.5-13.72h-.06V76.36h-4.21V55.88Z"/><path class="cls-3" d="M185.5,28.64c-.6.07-1.2.16-1.79.26a13.42,13.42,0,0,0-1.6.41,4,4,0,0,0-1.24.62,2.67,2.67,0,0,0-.79.91,3.08,3.08,0,0,0-.29,1.43,2.86,2.86,0,0,0,.29,1.36,2.11,2.11,0,0,0,.76.83,3.58,3.58,0,0,0,1.25.47,8.88,8.88,0,0,0,1.65.15,6.12,6.12,0,0,0,3.12-.65,4.3,4.3,0,0,0,1.57-1.54,5,5,0,0,0,.63-1.85,13.28,13.28,0,0,0,.13-1.63V27.85l-.22.08a13.41,13.41,0,0,1-1.66.43C186.74,28.47,186.13,28.57,185.5,28.64Z"/><path class="cls-3" d="M320.12,18.75a5.61,5.61,0,0,0-2.88-.68,5.13,5.13,0,0,0-4.68,2.45,7.85,7.85,0,0,0-1,2.61,16.41,16.41,0,0,0-.31,3.15,15.92,15.92,0,0,0,.31,3.11,8.17,8.17,0,0,0,1,2.62,5.32,5.32,0,0,0,1.82,1.77,5.66,5.66,0,0,0,2.86.65,5.72,5.72,0,0,0,2.89-.66A5.1,5.1,0,0,0,322,32a8.17,8.17,0,0,0,1-2.62,16,16,0,0,0,.31-3.11,16.49,16.49,0,0,0-.31-3.15,7.85,7.85,0,0,0-1-2.61A5.24,5.24,0,0,0,320.12,18.75Z"/><polygon class="cls-1" points="24.61 25.06 9.59 0.92 0 0.92 0 40.95 9.43 40.95 9.43 16.86 24.4 40.95 34.04 40.95 34.04 0.92 24.61 0.92 24.61 25.06"/><polygon class="cls-1" points="85.85 26.46 77.77 0.92 69.49 0.92 67.5 0.92 36.42 0.92 36.42 9.54 47.97 9.54 47.97 40.95 57.95 40.95 57.95 9.54 69.49 9.54 69.49 7.09 80.45 40.95 91.08 40.95 104.37 0.92 94.04 0.92 85.85 26.46"/><path class="cls-1" d="M145.81,25.27a10.25,10.25,0,0,1-2.48,5.84,7.06,7.06,0,0,1-5.51,2.13,9.21,9.21,0,0,1-4.5-1,8.64,8.64,0,0,1-3-2.71,12.25,12.25,0,0,1-1.7-3.88,19.08,19.08,0,0,1-.54-4.55,20.54,20.54,0,0,1,.54-4.73,12.52,12.52,0,0,1,1.7-4,8.47,8.47,0,0,1,3-2.72,9.13,9.13,0,0,1,4.5-1,8.13,8.13,0,0,1,2.74.47,8.22,8.22,0,0,1,2.34,1.31,8,8,0,0,1,1.73,1.94,6.41,6.41,0,0,1,.86,2.39l.1.64h9.69l-.1-.83a16.16,16.16,0,0,0-1.93-6.22,15.1,15.1,0,0,0-3.88-4.57A17.19,17.19,0,0,0,144.06,1a21.43,21.43,0,0,0-14.51.68,17.9,17.9,0,0,0-6.22,4.51,20.18,20.18,0,0,0-3.87,6.69,24.93,24.93,0,0,0-1.34,8.26,24.12,24.12,0,0,0,1.34,8.11,19.72,19.72,0,0,0,3.87,6.59,17.88,17.88,0,0,0,6.23,4.42,20.59,20.59,0,0,0,8.26,1.6,19.92,19.92,0,0,0,6.78-1.12A16,16,0,0,0,150,37.4a16.48,16.48,0,0,0,3.74-5.2,20.62,20.62,0,0,0,1.74-6.77l.07-.82H145.9Z"/><rect class="cls-1" x="158.65" y="0.92" width="9.16" height="40.03"/><path class="cls-1" d="M198.57,37.51a28.23,28.23,0,0,1-.21-3.52V19.48A7.45,7.45,0,0,0,197.08,15a8.53,8.53,0,0,0-3.19-2.63,13.94,13.94,0,0,0-4.17-1.23,27.06,27.06,0,0,0-9.12.17,13.91,13.91,0,0,0-4.37,1.62A10.13,10.13,0,0,0,173,16a9.78,9.78,0,0,0-1.48,4.85l0,.8h9.14l.06-.68a3.63,3.63,0,0,1,1.22-2.71,5.14,5.14,0,0,1,3.11-.82,11.28,11.28,0,0,1,1.8.13,3.34,3.34,0,0,1,1.29.44,2.14,2.14,0,0,1,.81.85,3.38,3.38,0,0,1,.31,1.64,1.3,1.3,0,0,1-.42,1.19,4.3,4.3,0,0,1-1.76.8,20.07,20.07,0,0,1-2.86.47c-1.11.11-2.27.25-3.44.44a32.18,32.18,0,0,0-3.51.74A10.51,10.51,0,0,0,174,25.61a7.59,7.59,0,0,0-2.39,2.71,8.82,8.82,0,0,0-.93,4.27,9.55,9.55,0,0,0,.8,4,7.63,7.63,0,0,0,2.24,2.86A9.3,9.3,0,0,0,177,41.14a14.53,14.53,0,0,0,3.93.51,18.27,18.27,0,0,0,5.29-.79A10.94,10.94,0,0,0,189.72,39h0a11.86,11.86,0,0,0,.37,1.42l.18.51h9.66l-.72-1.15A5.74,5.74,0,0,1,198.57,37.51Zm-9.38-9.66v1.56a13.28,13.28,0,0,1-.13,1.63,5,5,0,0,1-.63,1.85,4.3,4.3,0,0,1-1.57,1.54,6.12,6.12,0,0,1-3.12.65,8.88,8.88,0,0,1-1.65-.15,3.58,3.58,0,0,1-1.25-.47,2.11,2.11,0,0,1-.76-.83,2.86,2.86,0,0,1-.29-1.36,3.08,3.08,0,0,1,.29-1.43,2.67,2.67,0,0,1,.79-.91,4,4,0,0,1,1.24-.62,13.42,13.42,0,0,1,1.6-.41c.59-.1,1.19-.19,1.79-.26s1.24-.17,1.81-.28a13.41,13.41,0,0,0,1.66-.43Z"/><path class="cls-1" d="M225.19,25.15a11.81,11.81,0,0,0-3-1.53,34.4,34.4,0,0,0-3.34-.94c-1.08-.25-2.15-.48-3.2-.7a24.86,24.86,0,0,1-2.7-.71,4.84,4.84,0,0,1-1.71-.91,1.54,1.54,0,0,1-.24-2,2,2,0,0,1,.78-.58,3.73,3.73,0,0,1,1.15-.29,13.1,13.1,0,0,1,1.33-.08,7,7,0,0,1,3.21.7,2.62,2.62,0,0,1,1.27,2.38l0,.7h8.8l-.07-.82a9.89,9.89,0,0,0-1.44-4.63,9.55,9.55,0,0,0-3-3,12.55,12.55,0,0,0-4-1.55,24.48,24.48,0,0,0-9.11,0,13.21,13.21,0,0,0-4.12,1.49,8.56,8.56,0,0,0-3,3,9.14,9.14,0,0,0-1.16,4.81,6.74,6.74,0,0,0,.86,3.49,7.51,7.51,0,0,0,2.22,2.34,11.63,11.63,0,0,0,3,1.44c1.08.35,2.2.66,3.34.91a46.48,46.48,0,0,1,6.28,1.7c1.62.61,1.81,1.37,1.81,1.89a2,2,0,0,1-.35,1.26,2.93,2.93,0,0,1-1,.86,5.2,5.2,0,0,1-1.42.51,7.5,7.5,0,0,1-3.54-.07,5.09,5.09,0,0,1-1.62-.72,3.91,3.91,0,0,1-1.1-1.22h0a3.52,3.52,0,0,1-.41-1.76v-.75h-8.82l0,.78a9.6,9.6,0,0,0,4.59,8.27,13.23,13.23,0,0,0,4.37,1.72,24.2,24.2,0,0,0,4.91.5,25.06,25.06,0,0,0,4.81-.47,12.65,12.65,0,0,0,4.33-1.7A9.61,9.61,0,0,0,227,36.24a9.74,9.74,0,0,0,1.21-5,7.37,7.37,0,0,0-.85-3.64A7.85,7.85,0,0,0,225.19,25.15Z"/><path class="cls-1" d="M237.86,41c.57-.55,1.14-1.08,1.74-1.59a34.33,34.33,0,0,1,17.06-7.75c0-.15,0-.3,0-.46a7.26,7.26,0,0,0-.86-3.64,7.73,7.73,0,0,0-2.21-2.45,11.49,11.49,0,0,0-3-1.53,34.21,34.21,0,0,0-3.33-.94c-1.09-.25-2.15-.48-3.2-.7a24.26,24.26,0,0,1-2.7-.71,5,5,0,0,1-1.72-.91,1.36,1.36,0,0,1-.49-1.1,1.28,1.28,0,0,1,.26-.89,1.92,1.92,0,0,1,.77-.58,3.73,3.73,0,0,1,1.16-.29,12.91,12.91,0,0,1,1.32-.08,7,7,0,0,1,3.22.7,2.62,2.62,0,0,1,1.27,2.38l0,.7H256l-.07-.82a9.89,9.89,0,0,0-1.44-4.63,9.58,9.58,0,0,0-3-3,12.49,12.49,0,0,0-4-1.55,24.48,24.48,0,0,0-9.11,0,13.27,13.27,0,0,0-4.13,1.49,8.54,8.54,0,0,0-3,3A9.14,9.14,0,0,0,230,20.5a6.74,6.74,0,0,0,.86,3.49,7.4,7.4,0,0,0,2.22,2.34,11.72,11.72,0,0,0,3,1.44c1.09.35,2.21.66,3.34.91a46.69,46.69,0,0,1,6.29,1.7c1.62.61,1.81,1.37,1.81,1.89a2.11,2.11,0,0,1-.35,1.26,3,3,0,0,1-1,.86,5.13,5.13,0,0,1-1.41.51,7.5,7.5,0,0,1-3.54-.07,5.09,5.09,0,0,1-1.62-.72,3.79,3.79,0,0,1-1.1-1.22h0a3.42,3.42,0,0,1-.41-1.76v-.75h-8.82l0,.78a10.19,10.19,0,0,0,1.38,5,10,10,0,0,0,3.21,3.23A13,13,0,0,0,237.86,41Z"/><rect class="cls-1" x="259.34" y="0.92" width="9.16" height="7.81"/><path class="cls-1" d="M261.75,31.31h0a33.82,33.82,0,0,1,6.75.68V11.55h-9.17V31.41C260.14,31.35,261,31.31,261.75,31.31Z"/><path class="cls-1" d="M291.88,28.76l-.1.65a6.52,6.52,0,0,1-1.66,3.71,4.86,4.86,0,0,1-3.69,1.31,4.69,4.69,0,0,1-2.62-.69,5.38,5.38,0,0,1-1.73-1.82,8.91,8.91,0,0,1-1-2.61,14.11,14.11,0,0,1-.31-2.93,14.62,14.62,0,0,1,.31-3,8.86,8.86,0,0,1,1-2.69,6,6,0,0,1,1.8-1.91,4.68,4.68,0,0,1,2.66-.71c2.91,0,4.48,1.32,4.92,4.17l.1.63h8.94l-.05-.79a11.24,11.24,0,0,0-1.39-5A11.09,11.09,0,0,0,296,13.56a13.44,13.44,0,0,0-4.34-2.09,18.26,18.26,0,0,0-5-.68A16.07,16.07,0,0,0,280.3,12a13.54,13.54,0,0,0-4.74,3.34,14.44,14.44,0,0,0-2.93,5.06,19.55,19.55,0,0,0-1,6.26,16.52,16.52,0,0,0,1.07,6c.07.18.16.35.23.52a34.32,34.32,0,0,1,12,7.11,5.11,5.11,0,0,1,2.84-.87l.44,0,.18,0a4.89,4.89,0,0,1,3,1.52,13.37,13.37,0,0,0,4.7-2.42,13.45,13.45,0,0,0,4.58-8.95l.12-.86Z"/><path class="cls-1" d="M360.52,27.6a7.85,7.85,0,0,0-2.21-2.45,11.81,11.81,0,0,0-3-1.53,34.4,34.4,0,0,0-3.34-.94c-1.08-.25-2.15-.48-3.2-.7a24.64,24.64,0,0,1-2.69-.71,5,5,0,0,1-1.72-.91,1.57,1.57,0,0,1-.24-2,2,2,0,0,1,.78-.58A3.73,3.73,0,0,1,346,17.5a12.75,12.75,0,0,1,1.32-.08,7,7,0,0,1,3.22.7,2.64,2.64,0,0,1,1.27,2.38l.05.7h8.79l-.06-.82a10,10,0,0,0-1.44-4.63,9.58,9.58,0,0,0-3-3,12.55,12.55,0,0,0-4.05-1.55,24.48,24.48,0,0,0-9.11,0,13.3,13.3,0,0,0-4.12,1.49,8.46,8.46,0,0,0-3,3,9.14,9.14,0,0,0-1.17,4.81,6.65,6.65,0,0,0,.87,3.49,7.29,7.29,0,0,0,2.22,2.34,11.72,11.72,0,0,0,3,1.44c1.09.35,2.21.66,3.34.91a46.06,46.06,0,0,1,6.28,1.7c1.62.61,1.81,1.37,1.81,1.89a2.11,2.11,0,0,1-.34,1.26,3,3,0,0,1-1,.86,5.25,5.25,0,0,1-1.41.51,7.49,7.49,0,0,1-3.54-.07,5,5,0,0,1-1.62-.72,3.94,3.94,0,0,1-1.11-1.22h0a3.52,3.52,0,0,1-.41-1.76v-.75H334l0,.78a9.62,9.62,0,0,0,4.58,8.27A13.37,13.37,0,0,0,343,41.15a24.17,24.17,0,0,0,4.9.5,24.9,24.9,0,0,0,4.81-.47,12.57,12.57,0,0,0,4.33-1.7,9.52,9.52,0,0,0,3.13-3.24,9.65,9.65,0,0,0,1.22-5A7.26,7.26,0,0,0,360.52,27.6Z"/><path class="cls-2" d="M288,42.44a2.07,2.07,0,0,0-1.49.45,2.1,2.1,0,0,0-.74,1.38l-.1,1.09a31.26,31.26,0,0,0-44.08-3.62,30.8,30.8,0,0,0-4.44,4.62,2.08,2.08,0,0,0-.28,2,2,2,0,0,0,2.57,1.18,2,2,0,0,0,.92-.69,27.21,27.21,0,0,1,42.47-.49l-1.59-.21a2,2,0,0,0-1.88.76,2.08,2.08,0,0,0-.28,2,2,2,0,0,0,1.61,1.24l6.21.85h.27a2,2,0,0,0,1.27-.44,2.05,2.05,0,0,0,.76-1.4l.62-6.49A2,2,0,0,0,288,42.44Z"/></g></g></svg>