<?xml version="1.0" encoding="UTF-8" standalone="no"?>
<svg
   xmlns:dc="http://purl.org/dc/elements/1.1/"
   xmlns:cc="http://creativecommons.org/ns#"
   xmlns:rdf="http://www.w3.org/1999/02/22-rdf-syntax-ns#"
   xmlns:svg="http://www.w3.org/2000/svg"
   xmlns="http://www.w3.org/2000/svg"
   xmlns:sodipodi="http://sodipodi.sourceforge.net/DTD/sodipodi-0.dtd"
   xmlns:inkscape="http://www.inkscape.org/namespaces/inkscape"
   viewBox="0 0 166 52"
   width="166"
   height="52"
   preserveAspectRatio="xMidYMid meet"
   version="1.1"
   id="svg3907"
   sodipodi:docname="logo-sw.svg"
   inkscape:version="0.92.3 (2405546, 2018-03-11)">
  <metadata
     id="metadata3911">
    <rdf:RDF>
      <cc:Work
         rdf:about="">
        <dc:format>image/svg+xml</dc:format>
        <dc:type
           rdf:resource="http://purl.org/dc/dcmitype/StillImage" />
        <dc:title></dc:title>
      </cc:Work>
    </rdf:RDF>
  </metadata>
  <sodipodi:namedview
     pagecolor="#ffffff"
     bordercolor="#666666"
     borderopacity="1"
     objecttolerance="10"
     gridtolerance="10"
     guidetolerance="10"
     inkscape:pageopacity="0"
     inkscape:pageshadow="2"
     inkscape:window-width="3440"
     inkscape:window-height="1377"
     id="namedview3909"
     showgrid="false"
     inkscape:zoom="3.41674"
     inkscape:cx="115.65877"
     inkscape:cy="41.072162"
     inkscape:window-x="-8"
     inkscape:window-y="-8"
     inkscape:window-maximized="1"
     inkscape:current-layer="g3859" />
  <defs
     id="defs3839">
    <clipPath
       id="__lottie_element_710">
      <rect
         width="631"
         height="500"
         x="0"
         y="0"
         id="rect3836" />
    </clipPath>
  </defs>
  <g
     clip-path="url(#__lottie_element_710)"
     id="g3905"
     transform="matrix(0.33995277,0,0,0.33995277,-20.013701,-78.781852)">
    <g
       transform="matrix(0.85000062,0,0,0.85000062,390.88248,376.79517)"
       style="display:block;opacity:1"
       id="g3853">
      <g
         id="g3843"
         style="opacity:1">
        <path
           d="m 140.338,-48.441002 c 0,0 -0.705,-7.552997 -0.705,-7.552997 0,0 -12.89,0 -12.89,0 0.201,4.935001 0.402,10.272998 0.402,16.819 0,0 0,39.174999 0,39.174999 0,0 14.905,0 14.905,0 0,0 0,-33.334 0,-33.334 0,-8.560001 5.539,-11.681999 9.567,-11.681999 6.34501,0 8.56099,5.438 8.56099,12.285999 0,0 0,32.73 0,32.73 0,0 14.90401,0 14.90401,0 0,0 0,-34.341 0,-34.341 0,-15.709999 -7.95599,-22.861 -18.228,-22.861 -8.15699,0 -13.696,4.632 -16.214,8.760998 0,0 -0.302,0 -0.302,0 z"
           id="path3841"
           inkscape:connector-curvature="0"
           style="fill:#ebebeb;fill-opacity:1" />
      </g>
      <g
         id="g3847"
         style="opacity:1">
        <path
           d="m 99.045998,-56.094002 c 0,0 0,56.094002 0,56.094002 0,0 14.905002,0 14.905002,0 0,0 0,-56.094002 0,-56.094002 0,0 -14.905002,0 -14.905002,0 z M 114.455,-71.402 c 0,-4.633004 -3.223,-7.956002 -8.057,-7.956002 -4.633,0 -7.955999,3.322998 -7.955999,7.956002 0,4.531997 3.222999,7.956001 7.955999,7.956001 4.633,0 8.057,-3.122002 8.057,-7.956001 z"
           id="path3845"
           inkscape:connector-curvature="0"
           style="fill:#ebebeb;fill-opacity:1" />
      </g>
      <g
         id="g3851"
         style="opacity:1">
        <path
           d="m 70.193001,-44.312 c -1.611,9.264999 -3.122002,18.028 -4.330002,27.191999 0,0 -0.302002,0 -0.302002,0 -1.006996,-9.063999 -2.517998,-17.623998 -4.229996,-26.687998 0,0 -6.546001,-33.636001 -6.546001,-33.636001 0,0 -14.702999,0 -14.702999,0 0,0 -7.05,33.233001 -7.05,33.233001 C 31.018,-34.542999 29.105,-25.58 27.997,-16.919001 c 0,0 -0.302,0 -0.302,0 -1.108,-8.257999 -2.619,-17.824998 -4.23,-27.089998 0,0 -5.941999,-33.435001 -5.941999,-33.435001 0,0 -15.811001,0 -15.811001,0 0,0 17.02,77.444 17.02,77.444 0,0 15.710001,0 15.710001,0 0,0 7.552998,-32.831001 7.552998,-32.831001 1.913002,-8.156998 3.324001,-15.911 4.632999,-24.673001 0,0 0.201001,0 0.201001,0 1.007,8.762001 2.215999,16.616002 3.928001,24.673001 0,0 6.646999,32.831001 6.646999,32.831001 0,0 15.810997,0 15.810997,0 0,0 18.329003,-77.444 18.329003,-77.444 0,0 -15.005997,0 -15.005997,0 0,0 -6.345001,33.132 -6.345001,33.132 z"
           id="path3849"
           inkscape:connector-curvature="0"
           style="fill:#ebebeb;fill-opacity:1" />
      </g>
    </g>
    <g
       transform="matrix(0.65000039,0,0,0.65000039,344.25159,358.16946)"
       style="display:block;opacity:1"
       id="g3859">
      <g
         id="g3857"
         style="opacity:1">
        <path
           d="m 31.622,-68.985001 c 4.733,0 6.647001,4.431 6.647001,8.359002 0,4.934997 -2.921001,8.559997 -8.762001,12.487999 -3.223,-3.928002 -5.035,-7.554001 -5.035,-11.985001 0,-4.330002 2.215,-8.862 7.15,-8.862 z M 29.91,-9.8690004 c -7.754999,0 -12.688999,-5.9419996 -12.688999,-13.0919996 0,-5.64 3.323,-9.467001 6.444999,-11.984999 6.042,7.452 12.487999,15.206999 17.120999,20.443999 C 38.068001,-11.38 34.039001,-9.8690004 29.91,-9.8690004 Z M 35.952999,-40.786999 C 47.030998,-46.93 50.958,-53.474998 50.958,-61.23 c 0,-10.674999 -8.056,-17.423 -18.730999,-17.423 -13.797001,0 -20.948001,9.870003 -20.948001,19.738999 0,5.539001 2.216,11.380001 5.841001,15.811 0,0 0,0.403 0,0.403 C 8.6610003,-37.764999 3.223,-30.615 3.223,-20.645 c 0,11.2789998 8.056,21.753 24.371,21.753 8.156999,0 14.905001,-2.619 19.94,-7.0499999 C 49.548,-3.424 51.058998,-1.813 52.669998,0 c 0,0 17.020004,0 17.020004,0 C 64.957001,-5.4380002 60.827,-10.272 57.202,-14.502 c 6.143001,-7.15 9.769001,-17.321999 11.480999,-28.601001 0,0 -13.192997,0 -13.192997,0 -0.806004,6.949002 -2.618,14.401001 -5.740002,19.638001 -4.028,-4.532 -9.366001,-11.380001 -13.797001,-16.818001 0,0 0,-0.503998 0,-0.503998 z"
           id="path3855"
           inkscape:connector-curvature="0"
           style="fill:#ebebeb;fill-opacity:1" />
      </g>
      <path
         style="fill:#808080;stroke-width:0.07316916"
         d="m 101.72414,43.097688 c -1.52749,-0.318268 -2.740293,-1.154915 -3.39949,-2.345127 -0.814431,-1.470496 -0.76439,-3.509471 0.122542,-4.993101 0.354559,-0.593096 1.210978,-1.471227 1.803688,-1.849416 0.28381,-0.181094 0.51796,-0.358779 0.52032,-0.394857 0.002,-0.03608 -0.11261,-0.241712 -0.25548,-0.456965 -1.576693,-2.375383 -1.221276,-5.24124 0.82325,-6.638203 1.5036,-1.027362 3.79662,-1.082656 5.2674,-0.127018 1.09635,0.71235 1.63325,1.748523 1.63151,3.148712 -0.002,1.271619 -0.35433,2.110821 -1.27959,3.044199 -0.32195,0.324767 -0.84877,0.759592 -1.17071,0.966277 -0.32194,0.206686 -0.64884,0.421539 -0.72643,0.477453 -0.13367,0.09633 -0.10123,0.151259 0.61839,1.047107 0.41771,0.519996 1.07386,1.322929 1.45812,1.784295 0.38426,0.461366 0.73599,0.887809 0.78162,0.947649 0.0682,0.08942 0.12196,0.03123 0.30183,-0.326665 0.42942,-0.854396 0.85554,-2.347507 1.00655,-3.526861 l 0.0492,-0.384138 h 1.45983 1.45983 l -0.0473,0.274384 c -0.13605,0.789335 -0.43068,1.966207 -0.66342,2.649924 -0.31667,0.930287 -1.00152,2.292677 -1.45334,2.891201 -0.18168,0.240666 -0.33033,0.4634 -0.33033,0.494964 0,0.03156 0.61069,0.764817 1.35708,1.629453 l 1.35708,1.572065 h -1.87638 -1.87638 l -0.31484,-0.350177 c -0.17316,-0.192597 -0.42893,-0.486743 -0.56839,-0.653657 l -0.25355,-0.303481 -0.39398,0.298898 c -0.50793,0.385342 -1.44369,0.82585 -2.16587,1.019588 -0.73152,0.196242 -2.52319,0.253426 -3.24276,0.103497 z m 2.74639,-2.409205 c 0.20122,-0.05375 0.51402,-0.17215 0.69511,-0.263112 0.31582,-0.158631 0.80486,-0.56369 0.80486,-0.666636 0,-0.02712 -0.41981,-0.540691 -0.9329,-1.141276 -0.5131,-0.600585 -1.3431,-1.592649 -1.84444,-2.204587 -0.50133,-0.611938 -0.93847,-1.112614 -0.97141,-1.112614 -0.10333,0 -0.66817,0.605882 -0.91778,0.984474 -0.31518,0.478025 -0.45531,0.974483 -0.45531,1.613031 0,1.391708 0.81849,2.525304 2.02931,2.81057 0.41938,0.0988 1.18405,0.08927 1.59256,-0.01985 z m -0.33909,-8.79293 c 0.95568,-0.747769 1.37181,-1.536315 1.31098,-2.484228 -0.0412,-0.641505 -0.25835,-1.131162 -0.62613,-1.41168 -0.23228,-0.177172 -0.32385,-0.199226 -0.82716,-0.199226 -0.52303,0 -0.58729,0.01715 -0.84714,0.226048 -0.15465,0.124327 -0.36349,0.371273 -0.4641,0.548769 -0.1658,0.29252 -0.18292,0.401462 -0.18292,1.164166 0,0.797802 0.0124,0.867527 0.23815,1.344309 0.24586,0.519135 0.71685,1.216611 0.82155,1.216611 0.0327,0 0.29225,-0.182146 0.57677,-0.404769 z"
         id="path3953"
         inkscape:connector-curvature="0"
         transform="matrix(4.5255128,0,0,4.5255128,-439.04525,-194.50133)" />
      <path
         style="fill:#808080;stroke-width:0.07316916"
         d="m 118.26292,49.246945 c 0,-0.05148 -4.83277,-22.02839 -4.87302,-22.159925 -0.0367,-0.120058 0.10384,-0.128046 2.2531,-0.128046 h 2.29227 l 0.89991,5.066964 c 1.00938,5.683303 1.42645,8.182573 1.76744,10.591236 0.23112,1.632583 0.28773,1.933774 0.33694,1.792645 0.014,-0.04024 0.11134,-0.632914 0.21625,-1.317045 0.26815,-1.74867 0.65691,-3.698008 2.06114,-10.335144 l 1.22684,-5.798656 h 2.14116 c 1.23791,0 2.14116,0.0281 2.14116,0.0666 0,0.03663 0.3932,2.086283 0.87376,4.554781 1.42643,7.326982 1.68612,8.777087 2.01582,11.256326 0.10435,0.784739 0.20097,1.459724 0.2147,1.499968 0.048,0.140684 0.10365,-0.160063 0.37239,-2.012152 0.39629,-2.731036 0.79801,-5.015634 1.84305,-10.481483 l 0.9338,-4.884041 h 2.16636 2.16635 l -0.68004,2.871889 c -0.37403,1.579539 -1.56222,6.600773 -2.64044,11.158297 l -1.96039,8.286408 h -2.28544 -2.28544 l -0.0392,-0.164631 c -0.10778,-0.452575 -2.1676,-10.682429 -2.30115,-11.428369 -0.17438,-0.974011 -0.55596,-3.563445 -0.63139,-4.284708 -0.0274,-0.26158 -0.0726,-0.5187 -0.10056,-0.571378 -0.028,-0.05268 -0.15949,0.572918 -0.2923,1.390214 -0.37117,2.284179 -0.77194,4.192373 -2.04858,9.754108 -0.64663,2.817012 -1.19092,5.162999 -1.20954,5.213303 -0.0261,0.07048 -0.55482,0.09146 -2.30441,0.09146 -1.2488,0 -2.27054,-0.01288 -2.27054,-0.02862 z"
         id="path4760"
         inkscape:connector-curvature="0"
         transform="matrix(4.5255128,0,0,4.5255128,-439.04525,-194.50133)" />
      <path
         style="fill:#808080;stroke-width:0.07316916"
         d="m 141.45755,41.190376 v -8.085193 h 2.15849 2.15849 v 8.085193 8.085192 h -2.15849 -2.15849 z"
         id="path4762"
         inkscape:connector-curvature="0"
         transform="matrix(4.5255128,0,0,4.5255128,-439.04525,-194.50133)" />
      <path
         style="fill:#808080;stroke-width:0.07316916"
         d="m 142.94186,30.88188 c -0.81953,-0.268756 -1.29241,-0.748118 -1.52406,-1.544947 -0.47098,-1.620135 0.7575,-3.095098 2.44651,-2.937376 0.84115,0.07855 1.4537,0.487464 1.85489,1.238266 0.13973,0.261487 0.16508,0.421311 0.16508,1.040626 0,0.803125 -0.097,1.084018 -0.55422,1.604754 -0.49124,0.559488 -1.63409,0.845979 -2.3882,0.598677 z"
         id="path4764"
         inkscape:connector-curvature="0"
         transform="matrix(4.5255128,0,0,4.5255128,-439.04525,-194.50133)" />
      <path
         style="fill:#808080;stroke-width:0.07316916"
         d="m 149.57932,42.299546 c 0,-3.836811 -0.0216,-7.475148 -0.048,-8.085192 l -0.048,-1.109171 h 1.83633 c 1.00998,0 1.85209,0.0255 1.87135,0.05666 0.0193,0.03116 0.0761,0.525055 0.12622,1.097538 0.0502,0.572482 0.11417,1.040877 0.14227,1.040877 0.0281,0 0.14316,-0.132881 0.25571,-0.295291 0.5486,-0.791631 1.66022,-1.589789 2.70545,-1.942544 0.78589,-0.265233 2.15288,-0.330969 2.99348,-0.143953 1.71891,0.382421 3.01463,1.629199 3.62056,3.483814 0.38758,1.186307 0.39069,1.2394 0.42474,7.257551 l 0.0318,5.615733 h -2.15979 -2.15979 l -0.0248,-5.286472 c -0.0238,-5.075596 -0.0308,-5.305802 -0.17407,-5.77106 -0.41435,-1.34524 -1.20144,-1.952439 -2.43305,-1.876975 -1.17448,0.07196 -2.01325,0.774965 -2.44976,2.053214 -0.15163,0.444044 -0.15579,0.576721 -0.17762,5.66799 l -0.0224,5.213303 h -2.15531 -2.1553 z"
         id="path4766"
         inkscape:connector-curvature="0"
         transform="matrix(4.5255128,0,0,4.5255128,-439.04525,-194.50133)" />
    </g>
    <g
       transform="translate(60.50293,358.60327)"
       style="display:block;opacity:1"
       id="g3863">
      <path
         d="m 242.62199,-33.938999 c 0.403,-5.539002 3.42501,-12.991001 10.57502,-12.991001 7.352,0 9.66798,7.150001 9.567,12.991001 0,0 -20.14202,0 -20.14202,0 z m 33.536,10.372999 c 0.302,-1.611 0.40301,-3.725 0.40301,-5.941 0,-18.126999 -8.86199,-27.796001 -22.458,-27.796001 -16.415,0 -25.68,13.898002 -25.68,30.011001 0,17.4220001 9.86901,28.299 27.191,28.299 6.94899,0 13.494,-1.20900001 18.127,-3.2230001 0,0 -2.11499,-10.2719999 -2.11499,-10.2719999 -3.827,1.309 -8.15702,2.316 -13.69602,2.316 -8.05699,0 -14.905,-3.827 -15.308,-13.394 0,0 33.536,0 33.536,0 z"
         id="path3861"
         inkscape:connector-curvature="0"
         style="fill:#ff0000;fill-opacity:1" />
    </g>
    <g
       transform="translate(59.297134,358.36508)"
       style="display:block;opacity:1"
       id="g3867">
      <path
         d="m 184.85001,-33.132999 c 0,-6.747002 4.53199,-12.186001 10.27198,-12.186001 7.35201,0 11.17801,7.250999 11.17801,17.221 0,10.071 -3.927,17.524 -11.47999,17.524 -5.03501,0 -9.97,-3.928 -9.97,-12.085 0,0 0,-10.473999 0,-10.473999 z M 182.533,-56.094002 c 0,0 -12.99099,0 -12.99099,0 0.20099,5.136002 0.403,11.077004 0.403,18.328003 0,0 0,60.223999 0,60.223999 0,0 14.905,0 14.905,0 0,0 0,-27.8960002 0,-27.8960002 0,0 0.20098,0 0.20098,0 C 187.468,-1.712 192.201,1.108 198.34399,1.108 c 11.38001,0 23.06301,-9.0639999 23.06301,-29.709 0,-17.220999 -9.065,-28.702001 -21.351,-28.702001 -7.25101,0 -12.991,3.122001 -16.616,8.861999 0,0 -0.20199,0 -0.20199,0 0,0 -0.70501,-7.653 -0.70501,-7.653 z"
         id="path3865"
         inkscape:connector-curvature="0"
         style="fill:#ff0000;fill-opacity:1" />
    </g>
    <g
       transform="translate(58.674225,358.25082)"
       style="display:block;opacity:1"
       id="g3871">
      <path
         d="m 141.84599,-56.094002 c 0,0 0,56.094002 0,56.094002 0,0 14.90401,0 14.90401,0 0,0 0,-56.094002 0,-56.094002 0,0 -14.90401,0 -14.90401,0 z"
         id="path3869"
         inkscape:connector-curvature="0"
         style="fill:#ff0000;fill-opacity:1" />
    </g>
    <g
       transform="translate(58.580154,358.50281)"
       style="display:block;opacity:1"
       id="g3875">
      <path
         d="M 114.72,-32.025002 C 113.411,-25.58 112.303,-19.538 111.598,-13.596 c 0,0 -0.302,0 -0.302,0 -1.007,-6.042 -2.317,-11.984 -3.928,-18.429002 0,0 -5.941,-24.069 -5.941,-24.069 0,0 -11.783003,0 -11.783003,0 0,0 -6.243995,24.774002 -6.243995,24.774002 -1.308999,5.539 -2.921006,11.782 -3.928002,17.724 0,0 -0.302002,0 -0.302002,0 -0.806,-5.942 -1.912994,-11.984 -3.020996,-17.925999 0,0 -4.733002,-24.572003 -4.733002,-24.572003 0,0 -15.409,0 -15.409,0 0,0 15.609997,56.094002 15.609997,56.094002 0,0 13.495003,0 13.495003,0 0,0 6.142997,-21.451 6.142997,-21.451 1.511002,-5.338 2.719002,-10.876999 3.726006,-17.624001 0,0 0.201996,0 0.201996,0 1.108001,6.747002 2.215004,12.085001 3.625,17.624001 0,0 5.640001,21.451 5.640001,21.451 0,0 13.495,0 13.495,0 0,0 16.415,-56.094002 16.415,-56.094002 0,0 -14.602,0 -14.602,0 0,0 -5.036,24.069 -5.036,24.069 z"
         id="path3873"
         inkscape:connector-curvature="0"
         style="fill:#ff0000;fill-opacity:1" />
    </g>
    <g
       transform="translate(59,358.66211)"
       style="display:block;opacity:1"
       id="g3879">
      <path
         d="m 4.1290002,-3.323 c 3.625,2.216 11.3799998,4.33 19.0339998,4.33 18.026999,0 28.198,-9.8690005 28.198,-23.364 0,-10.171999 -5.539001,-17.322001 -17.925999,-22.860999 C 23.968,-49.548 20.142,-52.066002 20.142,-57.605 c 0,-4.330001 3.525,-8.560001 11.379999,-8.560001 6.345002,0 11.077999,1.913002 13.797001,3.323002 0,0 3.122002,-12.185001 3.122002,-12.185001 -3.625,-1.812996 -9.265003,-3.525002 -16.617003,-3.525002 -16.717999,0 -26.6879988,9.769005 -26.6879988,22.458 0,10.071003 7.2509998,17.322003 18.9329998,22.357002 8.560002,3.726 12.286999,7.049 12.286999,12.588 0,5.74 -4.330997,9.668 -12.588999,9.668 -6.243999,0 -12.689,-1.913 -16.7169998,-4.33 0,0 -2.921,12.488 -2.921,12.488 z"
         id="path3877"
         inkscape:connector-curvature="0"
         style="fill:#ff0000;fill-opacity:1" />
    </g>
    <g
       transform="translate(45,292.75)"
       style="display:block;opacity:1"
       id="g3889">
      <path
         d="m 141.84599,-56.094002 c 0,0 0,50.094002 0,50.094002 0,0 45.40502,0 45.40502,0 0,0 -0.001,-50.094002 -0.001,-50.094002 0,0 -45.40401,0 -45.40401,0 z m 3.75,3.562001 c 0,0 38.03002,0.031 38.03002,0.031 0,0 -0.12601,29.062999 -0.12601,29.062999 0,0 -37.40401,0 -37.40401,0 0,0 -0.5,-29.094001 -0.5,-29.094001 z M 136.5,3"
         id="path3881"
         inkscape:connector-curvature="0"
         style="fill:#ff0000;fill-opacity:1" />
      <g
         id="g3887"
         style="opacity:1">
        <path
           d="M 136.5,3"
           id="path3883"
           inkscape:connector-curvature="0"
           style="fill:#ff0000;fill-opacity:1" />
        <path
           stroke-miterlimit="4"
           d="M 136.5,3"
           id="path3885"
           inkscape:connector-curvature="0"
           style="fill-opacity:0;stroke:#ffffff;stroke-width:2;stroke-linecap:butt;stroke-linejoin:miter;stroke-miterlimit:4;stroke-opacity:1" />
      </g>
    </g>
    <g
       transform="matrix(1.4659411,1.0096616,-1.0096616,1.4659411,186.58823,230.39865)"
       style="display:block;opacity:0.00000323"
       id="g3899">
      <path
         d="m 141.84599,-56.094002 c 0,0 0,50.094002 0,50.094002 0,0 45.40502,0 45.40502,0 0,0 -0.001,-50.094002 -0.001,-50.094002 0,0 -45.40401,0 -45.40401,0 z m 3.75,3.562001 c 0,0 38.03002,0.031 38.03002,0.031 0,0 -0.12601,29.062999 -0.12601,29.062999 0,0 -37.40401,0 -37.40401,0 0,0 -0.5,-29.094001 -0.5,-29.094001 z M 136.5,3"
         id="path3891"
         inkscape:connector-curvature="0"
         style="fill:#ffffff;fill-opacity:1" />
      <g
         id="g3897"
         style="opacity:1">
        <path
           d="M 136.5,3"
           id="path3893"
           inkscape:connector-curvature="0"
           style="fill:#ff0000;fill-opacity:1" />
        <path
           stroke-miterlimit="4"
           d="M 136.5,3"
           id="path3895"
           inkscape:connector-curvature="0"
           style="fill-opacity:0;stroke:#ffffff;stroke-width:2;stroke-linecap:butt;stroke-linejoin:miter;stroke-miterlimit:4;stroke-opacity:1" />
      </g>
    </g>
    <g
       transform="matrix(0.02063189,0.06330261,-0.06330261,0.02063189,526,441.5)"
       style="display:block;opacity:0.00000114"
       id="g3903">
      <path
         d="m 288.82199,731.16699 c 291.66599,-88.26397 370.17001,47.07099 314.19302,-431.892 -47.578,-136.097 -36.54803,-392.192989 -189,-449.41299 -168.469,-41.201 -338.702006,-9.903 -599.58601,39.623 -51.994,-148.34401 -148.537,-462.37202 -197.209,-614.04103 -56.54901,-182.34296 -222.86502,-144.68695 -212.20499,19.83203 81.66199,298.676 164.456,596.203 246,895 -76.58102,-65.798 -319.55401,-300.031 -409,-89.998 0,4 0,8 0,11.999 C -549.5,376.48001 -392.09201,632.07397 -100.089,812.75598 -3.1370001,831.586 172.59399,771.96301 288.82199,731.16699 Z"
         id="path3901"
         inkscape:connector-curvature="0"
         style="fill:#ffffff;fill-opacity:1" />
    </g>
  </g>
</svg>
