<?xml version="1.0" encoding="UTF-8"?>
<svg width="90px" height="90px" viewBox="0 0 90 90" version="1.1" xmlns="http://www.w3.org/2000/svg" xmlns:xlink="http://www.w3.org/1999/xlink">
    <title>sorry</title>
    <g id="Page-1" stroke="none" stroke-width="1" fill="none" fill-rule="evenodd">
        <g id="sorry" fill="#FFCC00" fill-rule="nonzero">
            <path d="M45.0003,0.0002 C69.8533,0.0002 90.0003,20.1472 90.0003,45.0002 C89.9733,69.8412 69.8413,89.9732 45.0003,90.0002 C20.1463,90.0002 0.000300000001,69.8532 0.000300000001,45.0002 C0.000300000001,20.1472 20.1463,0.0002 45.0003,0.0002 Z M45.0003,5.2902 C23.0683,5.2902 5.2903,23.0682 5.2903,45.0002 C5.2903,66.9312 23.0683,84.7102 45.0003,84.7102 C66.9313,84.7102 84.7103,66.9312 84.7103,45.0002 C84.6883,23.0782 66.9223,5.3122 45.0003,5.2902 Z M63.5497,65.25 C64.5177,66.234 64.5687,67.795 63.6687,68.839 C62.7667,69.884 61.2147,70.063 60.0997,69.25 C54.3797,64.35 48.6607,62.09 43.0997,62.53 C38.1767,63.052 33.6077,65.331 30.2297,68.95 C29.7217,69.548 28.9747,69.889 28.1897,69.88 C27.1637,69.87 26.2337,69.269 25.8057,68.335 C25.3767,67.401 25.5277,66.305 26.1897,65.52 C30.4827,60.835 36.3477,57.892 42.6697,57.25 C49.6697,56.69 56.6697,59.38 63.5497,65.25 Z M29.0149,31.0995 C32.4689,31.0995 35.2699,33.9005 35.2699,37.3545 C35.2699,40.8085 32.4689,43.6095 29.0149,43.6095 C25.5599,43.6095 22.7599,40.8085 22.7599,37.3545 C22.7599,33.9005 25.5599,31.0995 29.0149,31.0995 Z M61.8098,31.1001 C64.8088,31.1001 67.2398,33.5311 67.2398,36.5301 C67.2398,39.5281 64.8088,41.9601 61.8098,41.9601 C58.8108,41.9601 56.3798,39.5281 56.3798,36.5301 C56.3798,33.5311 58.8108,31.1001 61.8098,31.1001 Z" id="Combined-Shape"></path>
        </g>
    </g>
</svg>