<svg xmlns="http://www.w3.org/2000/svg" width="30" height="30" viewBox="0 0 30 30">
    <g fill="none" fill-rule="evenodd">
        <path d="M0 0h30v30H0z"/>
        <path fill="#9198A0" fill-rule="nonzero" d="M25.33 6.564l-1.46-.611v9.85l2.65-6.392c.447-1.113-.065-2.39-1.19-2.847M4.059 10.6L9.47 23.636a2.193 2.193 0 0 0 1.975 1.375c.283 0 .578-.055.861-.175l8.04-3.327a2.202 2.202 0 0 0 1.342-1.953c.011-.283-.043-.6-.142-.883L16.091 5.636c-.316-.84-1.124-1.352-1.975-1.363-.283 0-.567.065-.84.163L5.247 7.764A2.176 2.176 0 0 0 4.058 10.6m17.618-4.145a2.182 2.182 0 0 0-2.181-2.182h-1.582l3.763 9.098"/>
    </g>
</svg>
