<svg xmlns="http://www.w3.org/2000/svg" width="36" height="36" viewBox="0 0 36 36">
    <defs>
        <linearGradient id="a" x1="50%" x2="50%" y1="27.011%" y2="100%">
            <stop offset="0%" stop-color="#FC6426"/>
            <stop offset="100%" stop-color="#CF1E55"/>
        </linearGradient>
    </defs>
    <g fill="none" fill-rule="evenodd" transform="translate(-2 -2)">
        <path d="M0 0h40v40H0z"/>
        <circle cx="20" cy="20" r="18" fill="url(#a)"/>
        <path fill="#FFF" stroke="#FFF" stroke-linecap="round" stroke-linejoin="round" stroke-width=".5" d="M15.84 20.62H11V18h4.84v2.62zm2.32 6.32v-2.42c.72.08 1.48.14 2.72.14 1.5 0 2.3-.66 2.3-2.04 0-1.22-.6-1.88-2.22-1.88-.86 0-1.72.1-2.46.22l.1-7.96h7.3v2.8h-4.6l-.04 2.48s.56-.04 1.26-.04c2.64 0 4.24 1.26 4.24 4.12 0 3.1-2.08 4.86-5.3 4.86-.96 0-2.28-.1-3.3-.28z"/>
    </g>
</svg>
