<?xml version="1.0" encoding="UTF-8"?>
<svg width="135px" height="135px" viewBox="0 0 135 135" version="1.1" xmlns="http://www.w3.org/2000/svg" xmlns:xlink="http://www.w3.org/1999/xlink">
    <title>2</title>
    <g id="Page-1" stroke="none" stroke-width="1" fill="none" fill-rule="evenodd">
        <g id="2" fill="#FFCC00" fill-rule="nonzero">
            <path d="M67.5,0 C104.779221,0 135,30.2207794 135,67.5 C135,104.779221 104.779221,135 67.5,135 C30.2207794,135 0,104.779221 0,67.5 C0,30.2207794 30.2207794,0 67.5,0 Z M67.5,8.6170213 C34.9798288,8.6170213 8.6170213,34.9798288 8.6170213,67.5 C8.6170213,100.020171 34.9798288,126.382979 67.5,126.382979 C100.020171,126.382979 126.382979,100.020171 126.382979,67.5 C126.382979,34.9798288 100.020171,8.6170213 67.5,8.6170213 Z M73.9244681,46.1546809 L101.187766,46.2829787 L101.187766,55.1355319 L81.4298936,55.007234 L80.4035106,63.0258511 L80.8284973,62.8369124 C81.8388431,62.4042412 82.9801596,62.0288697 84.2524468,61.7107979 C85.7064894,61.3472872 87.181915,61.1655319 88.678723,61.1655319 C91.415745,61.1655319 93.874787,61.7107979 96.055851,62.8013298 C98.236915,63.8918617 99.936862,65.4100532 101.155691,67.3559043 C102.374521,69.3017553 102.983936,71.4721277 102.983936,73.8670213 C102.983936,77.0317021 102.182074,79.7794149 100.578351,82.1101596 C98.974628,84.4409043 96.740106,86.2156915 93.874787,87.434521 C91.009468,88.653351 87.716489,89.262766 83.9958511,89.262766 C81.4726596,89.262766 79.0243085,88.963404 76.6507979,88.364681 C74.2772872,87.765957 72.1924468,86.8892553 70.3962766,85.7345745 L70.3962766,85.7345745 L70.3962766,76.3046809 L70.8335522,76.6140381 C72.5948011,77.8256559 74.5018085,78.7275368 76.5545745,79.3196809 C78.7784043,79.9611702 81.002234,80.2819149 83.2260638,80.2819149 C85.9203191,80.2819149 88.069309,79.7901064 89.673032,78.8064894 C91.276755,77.8228723 92.078617,76.4757447 92.078617,74.7651064 C92.078617,73.14 91.437128,71.8463298 90.154149,70.8840957 C88.87117,69.9218617 87.053617,69.4407447 84.7014894,69.4407447 C81.6223404,69.4407447 78.5004255,70.1891489 75.3357447,71.6859574 L75.3357447,71.6859574 L71.4868085,68.6709574 L73.9244681,46.1546809 Z M54.5514894,45 L54.5514894,79.8328723 L62.6984043,79.8328723 L62.6984043,88.364681 L34.4728723,88.364681 L34.4728723,79.8328723 L44.4159574,79.8328723 L44.4159574,54.8147872 L34.0238298,55.8411702 L33.5106383,48.5281915 L54.5514894,45 Z" id="Combined-Shape"></path>
        </g>
    </g>
</svg>