<?xml version="1.0" encoding="UTF-8"?>
<svg width="100px" height="131px" viewBox="0 0 100 131" version="1.1" xmlns="http://www.w3.org/2000/svg" xmlns:xlink="http://www.w3.org/1999/xlink">
    <title>1</title>
    <g id="Page-1" stroke="none" stroke-width="1" fill="none" fill-rule="evenodd">
        <g id="1" fill="#FFCC00" fill-rule="nonzero">
            <path d="M60.5148508,22.0906099 C60.6382505,22.1446005 60.7571063,22.2084142 60.8702724,22.2814357 C65.1451441,25.2335911 66.5766465,30.8922684 64.2209179,35.5264174 L58.1733477,49.3077125 C61.4849957,49.5142104 64.5116906,51.246465 66.3655991,53.9963469 C67.4844503,55.7807016 68.0858734,57.8408731 68.1029401,59.9475993 C69.531433,59.5119119 71.04306,59.4235703 72.511997,59.6899276 C72.64202,59.7122699 72.770119,59.7445966 72.895158,59.7866206 C78.552672,61.6918656 79.799609,65.3476802 79.662692,69.0664714 C81.085998,68.8159453 82.538433,68.777991 83.972519,68.9538492 C84.116224,68.9694627 84.258345,68.997179 84.397366,69.0367027 C86.963429,69.6410804 89.152388,71.3041662 90.421714,73.6137674 C91.572041,76.0728765 91.741187,78.8787041 90.894705,81.4598486 C90.8721,81.5237437 90.848124,81.5874566 90.820141,81.6492855 L76.910403,113.345662 C76.832291,113.524408 76.733511,113.693408 76.616082,113.849205 C74.097953,116.965265 71.225932,119.778077 68.0582752,122.231278 C60.3207,128.276534 48.0222193,134.385137 34.0309083,128.256702 C24.1146973,123.91429 13.6575122,116.280292 11.2750001,92.582848 L8.2290876,65.9780547 C7.6897242,63.3975592 8.1102197,60.7081701 9.4117793,58.4138405 C10.580431,56.6590141 12.4230288,55.4654315 14.5020659,55.1164972 C14.8019995,55.0569166 15.1102663,55.0527732 15.4115979,55.1042722 C15.575259,55.131306 15.7397997,55.151435 15.9063077,55.1725087 C19.3503468,55.6050559 22.3126526,56.8662641 27.5262486,67.8286708 L45.8205134,26.1425493 C45.8961741,25.9691018 45.9915164,25.8049063 46.1046635,25.6531951 C49.4890185,21.2470298 55.4716762,19.7679562 60.5148508,22.0906099 Z M50.3065674,28.4658457 L29.858681,75.0601548 C29.4547367,75.9818369 28.5414993,76.5755799 27.5353382,76.5706804 C26.5291772,76.5657809 25.6227977,75.9631773 25.2294425,75.0376127 C19.1100595,60.6575722 16.7081535,60.3553158 15.2729337,60.1748247 L15.1002099,60.1536946 C14.7469845,60.2474501 14.4151956,60.4086728 14.1231567,60.6284638 C13.9321083,60.7776125 13.7679274,60.9582805 13.6377015,61.1626683 C13.0643412,62.3622129 12.9035205,63.7172676 13.1802684,65.0169402 C13.200627,65.1056112 13.2160229,65.1953524 13.2263846,65.2857461 L16.2889783,92.039954 C18.5154228,114.185217 27.6606352,119.960736 36.0568366,123.638002 C54.96996,131.91915 70.640865,113.257874 72.419427,111.033734 L86.146565,79.7535633 C86.526443,78.4898202 86.451519,77.1333278 85.934816,75.9198537 C85.331247,74.9198361 84.347862,74.2074223 83.209205,73.945284 C81.392145,73.7770389 79.193588,73.9143218 78.543823,75.388959 C78.538597,75.400692 78.528151,75.4079065 78.522851,75.4195441 L75.119416,83.1743251 C74.758316,84.0012786 73.98308,84.572798 73.086359,84.673134 C72.189638,84.77347 71.308016,84.3873402 70.774306,83.6605089 C70.240596,82.9336775 70.13609,81.9768512 70.500238,81.1512327 L73.838691,73.5449867 C75.185665,67.6299044 75.136649,65.9186573 71.467666,64.6288068 C70.423746,64.4674173 68.4487171,64.3626159 66.4312907,67.6878592 C66.1440423,68.3347128 65.8024842,68.9794775 65.441724,69.6214622 L65.4298445,69.6758778 L65.4298445,69.6758778 L62.0235716,77.4381718 C61.6616687,78.2632275 60.8871662,78.8329577 59.9918116,78.9327505 C59.0964571,79.0325433 58.2162762,78.6472378 57.6828246,77.9219749 C57.1493729,77.196712 57.0436946,76.2416763 57.4055976,75.4166206 L60.7801614,67.726563 C60.7904455,67.7007201 60.7867049,67.6733483 60.7979413,67.6477081 C61.1287249,66.8872176 61.5023709,66.1460603 61.9170788,65.4278073 C63.3761604,62.7348042 63.4574586,59.5071389 62.1357424,56.7465146 C60.6693063,54.8976133 58.338185,53.9561574 55.9973919,54.267456 L48.8467412,70.5596888 C48.2872877,71.8351143 46.7999924,72.4165113 45.5247742,71.8582754 C44.2495559,71.3000395 43.6693138,69.8135631 44.2287671,68.5381375 L59.603092,33.5035479 C60.9284683,31.1953661 60.3632763,28.2662505 58.2747411,26.6193503 C55.5063635,25.3813334 52.2506543,26.1357914 50.3065674,28.4658457 Z M91.67195,14.2961421 L92.569603,14.9693226 L92.056185,9.2109801 C91.907891,7.5294081 93.179038,6.0427537 94.903527,5.8931223 C96.628372,5.7566688 98.145553,7.0027433 98.295126,8.6810043 L99.488232,22.082954 C99.636562,23.7666218 98.365487,25.2526682 96.641871,25.3988247 L82.980915,26.5693941 C82.876944,26.5788323 82.788941,26.5833333 82.704234,26.5833333 C81.086101,26.5833333 79.72944,25.3690906 79.588795,23.7856484 C79.440456,22.1018805 80.711531,20.6158341 82.435147,20.4696776 L87.581865,20.0262367 L88.888039,19.9136966 L87.838649,19.1278613 C65.56231,2.4462389 34.4057465,2.4433431 12.1414614,19.1239896 L11.0920419,19.9102261 L17.5666584,20.4656944 C19.2906651,20.6152841 20.5618121,22.1019385 20.4134752,23.7839912 C20.2729033,25.3666097 18.9167251,26.5793921 17.2980636,26.5793921 C17.204608,26.5793921 17.1122774,26.5759577 17.0149362,26.5688837 L3.3589238,25.3968973 C1.6342706,25.2489522 0.3620686,23.7622135 0.5120486,22.0810766 L1.7051683,8.6770078 C1.8534703,6.9919701 3.3568304,5.7548816 5.1009388,5.8914965 C6.8220605,6.0374519 8.0941029,7.5240041 7.9441028,9.2070572 L7.5323416,13.8241261 L7.4327152,14.9412344 L8.3302098,14.2686574 C32.8420996,-4.10040475 67.1577963,-4.08785058 91.67195,14.2961421 Z" id="Shape"></path>
        </g>
    </g>
</svg>