<?xml version="1.0" encoding="UTF-8"?>
<svg width="135px" height="135px" viewBox="0 0 135 135" version="1.1" xmlns="http://www.w3.org/2000/svg" xmlns:xlink="http://www.w3.org/1999/xlink">
    <title>howtoplay1</title>
    <g id="Page-1" stroke="none" stroke-width="1" fill="none" fill-rule="evenodd">
        <g id="howtoplay1" fill="#FFCC00" fill-rule="nonzero">
            <path d="M67.5,0 C104.779221,0 135,30.2207794 135,67.5 C135,104.779221 104.779221,135 67.5,135 C30.2207794,135 0,104.779221 0,67.5 C0,30.2207794 30.2207794,0 67.5,0 Z M67.5,8.6170213 C34.9798288,8.6170213 8.6170213,34.9798288 8.6170213,67.5 C8.6170213,100.020171 34.9798288,126.382979 67.5,126.382979 C100.020171,126.382979 126.382979,100.020171 126.382979,67.5 C126.382979,34.9798288 100.020171,8.6170213 67.5,8.6170213 Z M94.296176,42.0006596 C95.974658,42.0237387 97.408361,42.6531693 98.597285,43.8889513 C99.763131,45.0778758 100.333814,46.523468 100.310735,48.2250287 C100.287656,49.9035102 99.670115,51.3372132 98.457412,52.5261377 L98.457412,52.5261377 L59.467684,90.291973 C58.6753008,91.061277 57.7311549,91.573913 56.6352463,91.830581 C55.5393377,92.087249 54.4672077,92.05228 53.4181567,91.725676 C52.3222481,91.399071 51.4018807,90.816498 50.6556558,89.977257 L50.6556558,89.977257 L35.5493218,73.1574735 C34.4303341,71.8986123 33.9176978,70.4299409 34.0107137,68.7514594 C34.0806504,67.0498987 34.7569386,65.6392748 36.0388789,64.5202871 C37.274661,63.4012994 38.7433323,62.8886632 40.444893,62.981679 C42.1233745,63.0516158 43.5221092,63.7160147 44.6410969,64.9748759 L44.6410969,64.9748759 L55.5162586,77.0739304 L89.925131,43.7490779 C91.137134,42.5601534 92.594616,41.9775805 94.296176,42.0006596 Z" id="Combined-Shape"></path>
        </g>
    </g>
</svg>