<svg xmlns="http://www.w3.org/2000/svg" xmlns:xlink="http://www.w3.org/1999/xlink" width="77" height="48" viewBox="0 0 77 48">
    <defs>
        <linearGradient id="a" x1="115.308%" x2="-13.162%" y1="50%" y2="50%">
            <stop offset="0%" stop-color="#53A1FC"/>
            <stop offset="47.983%" stop-color="#79E3FF"/>
            <stop offset="100%" stop-color="#53A1FC"/>
        </linearGradient>
        <linearGradient id="b" x1="50%" x2="50%" y1="0%" y2="97.659%">
            <stop offset="0%" stop-color="#FFE2BC"/>
            <stop offset="100%" stop-color="#FCC39C"/>
        </linearGradient>
        <path id="c" d="M51.734 15.774c-1.018-.133-1.948.266-2.611.976a2.99 2.99 0 0 0-2.877-2.263c-.885 0-1.726.4-2.257 1.065-.399-1.198-1.505-2.085-2.833-2.085-.796 0-1.549.355-2.08.887V3.084c0-1.508-1.062-2.884-2.567-3.061a2.996 2.996 0 0 0-3.363 2.973V23.05c0 .4-.531.577-.753.222l-3.452-5.236c-.796-1.242-2.566-1.509-3.938-.577-1.372.888-1.815 2.662-1.018 3.86 0 0 9.648 14.642 9.736 14.731 1.77 2.44 4.603 3.949 7.657 3.949h3.452c5.178 0 9.426-4.17 9.47-9.318V18.924c0-1.597-1.106-2.972-2.566-3.15z"/>
        <filter id="d" width="139.8%" height="130.6%" x="-19.9%" y="-15.3%" filterUnits="objectBoundingBox">
            <feGaussianBlur in="SourceAlpha" result="shadowBlurInner1" stdDeviation="1.5"/>
            <feOffset dy="-3" in="shadowBlurInner1" result="shadowOffsetInner1"/>
            <feComposite in="shadowOffsetInner1" in2="SourceAlpha" k2="-1" k3="1" operator="arithmetic" result="shadowInnerInner1"/>
            <feColorMatrix in="shadowInnerInner1" values="0 0 0 0 0.980867347 0 0 0 0 0.746314442 0 0 0 0 0.642068706 0 0 0 1 0"/>
        </filter>
    </defs>
    <g fill="none" fill-rule="evenodd">
        <path fill="url(#a)" fill-rule="nonzero" d="M4.24 11.947C13.682 4.02 25.207.108 38.738.222 52.06.335 63.433 4.15 72.79 11.662l-.347-4.96a1.78 1.78 0 0 1 1.65-1.9 1.78 1.78 0 0 1 1.897 1.652l.683 9.768a1.78 1.78 0 0 1-1.65 1.9l-9.753.682a1.78 1.78 0 0 1-1.898-1.652 1.78 1.78 0 0 1 1.65-1.9l6.025-.421C62.235 7.568 51.48 3.886 38.707 3.778c-12.8-.108-23.572 3.58-32.393 11.074l5.715.4a1.78 1.78 0 0 1 1.649 1.9 1.78 1.78 0 0 1-1.898 1.652l-9.754-.682a1.78 1.78 0 0 1-1.649-1.9l.683-9.768a1.78 1.78 0 0 1 1.898-1.652 1.78 1.78 0 0 1 1.649 1.9l-.367 5.245z" transform="translate(0 7.556)"/>
        <g transform="translate(0 4)">
            <use fill="url(#b)" xlink:href="#c"/>
            <use fill="#000" filter="url(#d)" xlink:href="#c"/>
            <path stroke="#FFF" stroke-width="3.111" d="M51.928 14.23c2.263.28 3.928 2.334 3.928 4.694v11.772c-.052 6-4.994 10.86-11.026 10.86h-3.452c-3.524 0-6.836-1.724-8.916-4.591l.002-.002c-.272-.376-1.145-1.699-4.91-7.403l-.01-.017a12875.452 12875.452 0 0 1-4.441-6.734l-.414-.627c-1.302-1.96-.594-4.694 1.44-6.009 2.062-1.4 4.829-.992 6.111 1.008l1.35 2.048V2.996a4.55 4.55 0 0 1 5.102-4.518c2.281.27 3.94 2.297 3.94 4.606v8.86c.173-.022.348-.033.524-.033 1.27 0 2.431.534 3.263 1.407a4.513 4.513 0 0 1 1.827-.386c1.347 0 2.59.612 3.428 1.587a4.46 4.46 0 0 1 2.254-.288z"/>
        </g>
    </g>
</svg>
