<?xml version="1.0" encoding="UTF-8"?>
<svg width="118px" height="127px" viewBox="0 0 118 127" version="1.1" xmlns="http://www.w3.org/2000/svg" xmlns:xlink="http://www.w3.org/1999/xlink">
    <title>4</title>
    <g id="Page-1" stroke="none" stroke-width="1" fill="none" fill-rule="evenodd">
        <g id="4" fill="#FFCC00" fill-rule="nonzero">
            <path d="M86.098,0 C94.075,0 99.205,4.574 101.345,8.856 C103.208,12.581 103.339,15.952 103.335,16.931 L103.335,16.931 L103.345,17.076 C103.428,17.679 104.048,23.116 100.427,28.456 C99.998,29.089 99.491,29.726 98.876,30.404 L98.876,30.404 L97.361,32.076 L113.627,32.076 C114.57,32.076 115.493,32.458 116.161,33.126 C116.832,33.797 117.214,34.726 117.211036,35.678 L117.211036,35.678 L117.211036,63.156 C117.214,64.119 116.841,65.025 116.162,65.705 C115.493,66.372 114.57,66.754 113.623,66.754 L113.623,66.754 L103.433,66.754 L103.433,122.773 C103.425,124.734 101.824,126.334 99.867,126.342 L99.867,126.342 L17.348,126.342 C15.387,126.334 13.786,124.734 13.778,122.777 L13.778,122.777 L13.778,66.754 L3.582,66.754 C2.64,66.754 1.719,66.373 1.052,65.707 C0.38,65.036 -0.004,64.107 -6.15445312e-05,63.153 L-6.15445312e-05,63.153 L-6.15445312e-05,35.674 C-0.004,34.724 0.379,33.795 1.052,33.124 C1.724,32.452 2.679,32.107 3.61,32.076 L3.61,32.076 L19.852,32.076 L18.335,30.404 C17.72,29.727 17.212,29.089 16.784,28.455 C13.163,23.117 13.783,17.679 13.867,17.067 L13.867,17.067 L13.876,16.899 L13.876,16.899 L13.876907,16.7138107 C13.8923037,15.5689004 14.1066286,12.3738 15.866,8.856 C18.006,4.574 23.136,0 31.112,0 C36.122,0 41.038,2.156 44.953,6.071 C47.981,9.1 50.523,13.071 52.727,18.211 C55.108,23.77 56.189,28.33 56.793,31.278 L56.793,31.278 L56.958,32.076 L60.254,32.076 L60.418,31.278 C61.022,28.332 62.101,23.774 64.484,18.211 C66.688,13.071 69.23,9.1 72.258,6.071 C76.173,2.156 81.088,0 86.098,0 Z M96.266,66.754 L71.366,66.754 L71.366,119.175 L96.266,119.175 L96.266,66.754 Z M64.189,66.754 L53.022,66.754 L53.022,119.175 L64.189,119.175 L64.189,66.754 Z M45.855,66.754 L20.946,66.754 L20.946,119.175 L45.855,119.175 L45.855,66.754 Z M110.043,39.243 L71.365,39.243 L71.365,59.587 L110.043,59.587 L110.043,39.243 Z M64.189,39.243 L53.022,39.243 L53.022,59.587 L64.189,59.587 L64.189,39.243 Z M45.855,39.243 L7.177,39.243 L7.177,59.587 L45.855,59.587 L45.855,39.243 Z M86.098,7.176 C82.765,7.176 80.063,8.393 77.334,11.121 C74.423,14.031 72.321,18.122 71.07,21.041 C69.4565172,24.8061034 68.9950452,26.9216385 68.592846,29.0234837 L68.504,29.491 C68.419,29.943 68.333,30.398 68.234,30.874 L68.234,30.874 L67.986,32.076 L72.372,32.076 C83.644,32.006 91.08,29.434 94.473,24.431 C96.793,21.01 96.345,17.985 96.321,17.835 C96.29,17.662 96.271,17.487 96.266,17.324 C96.264,17.213 96.202,14.571 94.942,12.053 C93.709,9.585 92.01,7.176 86.098,7.176 Z M31.112,7.176 C25.201,7.176 23.502,9.585 22.268,12.053 C21.009,14.571 20.947,17.214 20.946,17.311 C20.94,17.488 20.921,17.663 20.886,17.858 C20.8850698,17.863907 20.8832136,17.8760833 20.8807532,17.8942772 L20.8718804,17.9666599 C20.8066036,18.5512174 20.633814,21.3282326 22.738,24.431 C26.13,29.434 33.569,32.006 44.855,32.076 L44.855,32.076 L49.224,32.076 L48.976,30.874 C48.877,30.397 48.792,29.941 48.706,29.49 C48.278,27.224 47.874,25.084 46.141,21.041 C44.89,18.122 42.788,14.032 39.876,11.121 C37.148,8.393 34.445,7.176 31.112,7.176 Z" id="Shape"></path>
        </g>
    </g>
</svg>