<svg xmlns="http://www.w3.org/2000/svg" width="32" height="39" viewBox="0 0 32 39">
    <defs>
        <linearGradient id="a" x1="50%" x2="50%" y1="0%" y2="100%">
            <stop offset="0%" stop-color="#7BE6FF"/>
            <stop offset="100%" stop-color="#529FFC"/>
        </linearGradient>
        <linearGradient id="b" x1="50%" x2="50%" y1="0%" y2="100%">
            <stop offset="0%" stop-color="#F6FCFF"/>
            <stop offset="100%" stop-color="#9EECFF"/>
        </linearGradient>
        <linearGradient id="c" x1="50%" x2="50%" y1="0%" y2="97.744%">
            <stop offset="0%" stop-color="#186BCB"/>
            <stop offset="100%" stop-color="#1057A8"/>
        </linearGradient>
    </defs>
    <g fill="none" fill-rule="evenodd" transform="translate(-4)">
        <path d="M0 0h40v40H0z"/>
        <path fill="url(#a)" d="M28.85 10.015l1.521-1.792a2.133 2.133 0 0 1 2.988-.261l.011.009a2.098 2.098 0 0 1 .26 2.973l-1.572 1.852A15.643 15.643 0 0 1 36 23.189C36 31.921 28.837 39 20 39S4 31.921 4 23.19a15.64 15.64 0 0 1 3.844-10.282c-.507-.635-1.023-1.284-1.549-1.946a2.133 2.133 0 0 1 .309-2.97l.037-.03c.9-.746 2.232-.63 2.988.261l1.521 1.792a16.014 16.014 0 0 1 5.65-2.32V5.27h-2.698a2.635 2.635 0 0 1 0-5.27h11.796a2.635 2.635 0 0 1 0 5.27H23.2v2.425a16.014 16.014 0 0 1 5.65 2.32z"/>
        <circle cx="20" cy="23" r="12" fill="url(#b)"/>
        <path fill="url(#c)" d="M20 32a9 9 0 0 0 0-18v9l-7.359 5.183A8.99 8.99 0 0 0 20 32z"/>
    </g>
</svg>
