<svg xmlns="http://www.w3.org/2000/svg" xmlns:xlink="http://www.w3.org/1999/xlink" width="34" height="40" viewBox="0 0 34 40">
    <defs>
        <linearGradient id="a" x1="50%" x2="50%" y1="27.011%" y2="100%">
            <stop offset="0%" stop-color="#FC6426"/>
            <stop offset="100%" stop-color="#CF1E55"/>
        </linearGradient>
        <linearGradient id="b" x1="50%" x2="50%" y1="0%" y2="100%">
            <stop offset="0%" stop-color="#FFE791"/>
            <stop offset="100%" stop-color="#FFC123"/>
        </linearGradient>
        <linearGradient id="c" x1="50%" x2="50%" y1="0%" y2="100%">
            <stop offset="0%" stop-color="#FFE791"/>
            <stop offset="100%" stop-color="#FFD363"/>
        </linearGradient>
        <path id="d" d="M16 20h8v20h-8z"/>
        <filter id="e" width="125%" height="110%" x="-12.5%" y="-5%" filterUnits="objectBoundingBox">
            <feGaussianBlur in="SourceAlpha" result="shadowBlurInner1" stdDeviation=".5"/>
            <feOffset dy="1" in="shadowBlurInner1" result="shadowOffsetInner1"/>
            <feComposite in="shadowOffsetInner1" in2="SourceAlpha" k2="-1" k3="1" operator="arithmetic" result="shadowInnerInner1"/>
            <feColorMatrix in="shadowInnerInner1" values="0 0 0 0 1 0 0 0 0 0.781704525 0 0 0 0 0.218197601 0 0 0 1 0"/>
        </filter>
    </defs>
    <g fill="none" fill-rule="evenodd" transform="translate(-3)">
        <path d="M0 0h40v40H0z"/>
        <rect width="28" height="28" x="6" y="12" fill="url(#a)" rx="1"/>
        <rect width="34" height="8" x="3" y="12" fill="url(#a)" rx="1"/>
        <path fill="url(#b)" d="M23.258.71h3.652a2 2 0 0 1 1.993 2.165l-.666 8a2 2 0 0 1-1.993 1.834h-2.32a2 2 0 0 1-1.993-1.834l-.667-8A2 2 0 0 1 23.258.71z" transform="rotate(52 25.084 6.71)"/>
        <path fill="url(#b)" d="M13.258.71h3.652a2 2 0 0 1 1.993 2.165l-.666 8a2 2 0 0 1-1.993 1.834h-2.32a2 2 0 0 1-1.993-1.834l-.667-8A2 2 0 0 1 13.258.71z" transform="scale(-1 1) rotate(52 0 -24.217)"/>
        <circle cx="20" cy="12" r="4" fill="url(#c)"/>
        <path fill="url(#c)" d="M16 12h8v8h-8z"/>
        <use fill="url(#c)" xlink:href="#d"/>
        <use fill="#000" filter="url(#e)" xlink:href="#d"/>
    </g>
</svg>
