<?xml version="1.0" encoding="UTF-8"?>
<svg width="30px" height="30px" viewBox="0 0 30 30" version="1.1" xmlns="http://www.w3.org/2000/svg" xmlns:xlink="http://www.w3.org/1999/xlink">
    <title>05_winners</title>
    <g id="05_winners" stroke="none" stroke-width="1" fill="none" fill-rule="evenodd">
        <path d="M21.0004983,21.3943254 L21,29 L15,27 L9,29 L8.99905914,21.3940693 C10.764312,22.4154266 12.8138888,23 15,23 C17.1859285,23 19.2353455,22.4155243 21.0004983,21.3943254 Z M15,1 C20.5228475,1 25,5.4771525 25,11 C25,16.5228475 20.5228475,21 15,21 C9.4771525,21 5,16.5228475 5,11 C5,5.4771525 9.4771525,1 15,1 Z M15,6 L13.531,8.977 L10.245,9.455 L12.622,11.773 L12.061,15.045 L15,13.5 L17.938,15.045 L17.378,11.773 L19.755,9.455 L16.47,8.977 L15,6 Z" id="Combined-Shape" fill="#000000" fill-rule="nonzero"></path>
    </g>
</svg>