<?xml version="1.0" encoding="UTF-8"?>
<svg width="151px" height="148px" viewBox="0 0 151 148" version="1.1" xmlns="http://www.w3.org/2000/svg" xmlns:xlink="http://www.w3.org/1999/xlink">
    <title>3</title>
    <g id="Page-1" stroke="none" stroke-width="1" fill="none" fill-rule="evenodd">
        <g id="3" fill="#FFCC00" fill-rule="nonzero">
            <path d="M99.325475,55.9325902 C101.082053,55.9325902 102.518372,57.3083373 102.615339,59.0407393 L102.620557,59.2276721 L102.620557,104.62718 L147.196721,104.62718 C148.953299,104.62718 150.389618,106.002927 150.486585,107.735329 L150.491803,107.922262 L150.491803,144.647246 C150.491803,146.403823 149.116056,147.840142 147.383654,147.93711 L147.196721,147.942328 L99.367028,147.942328 L99.346623,147.944679 L99.325475,147.947115 L51.4590164,147.947115 L51.4328856,147.94466 L51.4080957,147.942328 L3.59016393,147.942328 C1.83358647,147.942328 0.39726767,146.566581 0.30029988,144.834179 L0.29508197,144.647246 L0.29508197,78.212459 C0.29508197,76.4558816 1.67082913,75.0195628 3.40323111,74.922595 L3.59016393,74.917377 L48.1639344,74.917377 L48.1639344,59.2276721 C48.1639344,57.4710947 49.5396816,56.0347759 51.2720836,55.9378081 L51.4590164,55.9325902 L99.325475,55.9325902 Z M96.030393,62.5227541 L54.7540984,62.5227541 L54.7540984,141.356951 L96.030393,141.356951 L96.030393,62.5227541 Z M48.1639344,81.507541 L6.8852459,81.507541 L6.8852459,141.352164 L48.1639344,141.352164 L48.1639344,81.507541 Z M143.901639,111.217344 L102.620557,111.217344 L102.620557,141.352164 L143.901639,141.352164 L143.901639,111.217344 Z M78.694,0.55288525 C79.7563996,0.55288525 80.727974,1.15621835 81.2015722,2.11087826 L87.22302,14.3150833 L100.691904,16.2737748 C101.745475,16.4264123 102.6192,17.1637157 102.946634,18.1720807 C103.278624,19.1829712 103.004178,20.2974479 102.242273,21.0406791 L92.4969985,30.5416881 L94.8038862,43.9566696 C94.9827714,45.0038935 94.5511908,46.0651231 93.6930897,46.6881787 C92.8318129,47.3145619 91.6878534,47.3990292 90.7488333,46.9034337 L78.6963489,40.5683898 L66.6427042,46.9028314 C66.2392812,47.1155454 65.7926904,47.2240984 65.3409836,47.2240984 C64.753569,47.2240984 64.1744825,47.0368895 63.6996007,46.6898442 C62.8380436,46.0669869 62.4073635,45.0054074 62.5866669,43.9557376 L64.8910522,30.541911 L55.142488,21.042185 C54.3786527,20.3007059 54.1048665,19.1899457 54.4331509,18.1752504 C54.7616197,17.1637157 55.6353451,16.4264123 56.6884095,16.2738483 L70.1604877,14.3150275 L76.1883932,2.11174704 C76.658106,1.15740981 77.6305567,0.55288525 78.694,0.55288525 Z M78.6957579,9.6637696 L74.5239308,18.1078782 C74.1178074,18.9313027 73.3321812,19.5020222 72.4231412,19.6361428 L72.4210308,19.6364519 L63.0980889,20.9916566 L69.8434622,27.5656888 C70.5038026,28.2073755 70.8056955,29.1354168 70.6490855,30.041515 L69.0537178,39.3222221 L77.3976826,34.9384406 C78.2094617,34.5139323 79.1772118,34.5139323 79.9945838,34.9394226 L88.3318046,39.3217321 L86.7366758,30.0424126 C86.5799111,29.1354168 86.881804,28.2073755 87.5409919,27.5668105 L94.2856031,20.9916025 L84.9693983,19.636802 C84.0571102,19.5064751 83.2689507,18.9336375 82.8617253,18.1079787 L78.6957579,9.6637696 Z" id="Shape"></path>
        </g>
    </g>
</svg>